<svg xmlns="http://www.w3.org/2000/svg" xmlns:xlink="http://www.w3.org/1999/xlink" aria-hidden="true" focusable="false" width="1em" height="1em" style="-ms-transform: rotate(360deg); -webkit-transform: rotate(360deg); transform: rotate(360deg);" preserveAspectRatio="xMidYMid meet" viewBox="0 0 256 256"><path d="M208 32H48a16.018 16.018 0 0 0-16 16v160a16.018 16.018 0 0 0 16 16h160a16.018 16.018 0 0 0 16-16V48a16.018 16.018 0 0 0-16-16zm0 176H48V48h160l.01 160zM96 112.001v64a8 8 0 1 1-16 0v-64a8 8 0 0 1 16 0zm4-32a12 12 0 1 1-12-12a12 12 0 0 1 12 12zm84 60v36a8 8 0 1 1-16 0v-36a20 20 0 0 0-40 0v36a8 8 0 1 1-16 0v-64a7.997 7.997 0 0 1 15.795-1.778A35.981 35.981 0 0 1 184 140z"/></svg>